<svg xmlns="http://www.w3.org/2000/svg" viewBox="0 0 11 8.25"><defs><style>.cls-1{fill:#f2f2f2;}</style></defs><title>login_client</title><g id="图层_2" data-name="图层 2"><g id="图层_1-2" data-name="图层 1"><path class="cls-1" d="M4,.41,7.5,3.93a.34.34,0,0,1,.06.2.33.33,0,0,1-.06.19L4,7.82a.24.24,0,0,1-.18.09.31.31,0,0,1-.18-.07l-.15-.17a.2.2,0,0,1-.09-.17.28.28,0,0,1,.09-.2L6.27,4.49h-6a.24.24,0,0,1-.18-.07A.24.24,0,0,1,0,4.23V4a.25.25,0,0,1,.08-.19.29.29,0,0,1,.18-.07h6L3.44,1a.28.28,0,0,1-.09-.2A.2.2,0,0,1,3.44.58L3.59.41A.27.27,0,0,1,4,.41ZM11,7.22V1A1,1,0,0,0,10.7.3,1,1,0,0,0,10,0H7.13A.25.25,0,0,0,7,.08a.24.24,0,0,0-.07.18V.43A.24.24,0,0,0,7,.61a.25.25,0,0,0,.18.08H10a.37.37,0,0,1,.25.09.37.37,0,0,1,.09.25V7.22a.31.31,0,0,1-.34.34H7.13A.25.25,0,0,0,7,7.64a.24.24,0,0,0-.07.18V8A.23.23,0,0,0,7,8.17a.22.22,0,0,0,.18.08H10A1,1,0,0,0,10.7,8,1,1,0,0,0,11,7.22Z"/></g></g></svg>