<svg xmlns="http://www.w3.org/2000/svg" viewBox="0 0 11 8.42"><defs><style>.cls-1{fill:#f2f2f2;}</style></defs><title>login_user</title><g id="图层_2" data-name="图层 2"><g id="图层_1-2" data-name="图层 1"><path class="cls-1" d="M7.93,3.93a.5.5,0,0,1,.15.37.49.49,0,0,1-.15.36L4.32,8.27a.49.49,0,0,1-.56.11.46.46,0,0,1-.32-.47V5.84H.52a.5.5,0,0,1-.37-.15A.49.49,0,0,1,0,5.33V3.27A.5.5,0,0,1,.15,2.9a.5.5,0,0,1,.37-.15H3.44V.69A.47.47,0,0,1,3.76.21a.51.51,0,0,1,.56.11Zm1,4.32H7.13c-.17,0-.25-.09-.25-.26V7.13a.22.22,0,0,1,.25-.25H8.94a.66.66,0,0,0,.48-.21.64.64,0,0,0,.21-.48V2.06a.66.66,0,0,0-.21-.48.65.65,0,0,0-.48-.2H7.13c-.17,0-.25-.09-.25-.26V.26C6.88.09,7,0,7.13,0H8.94A2,2,0,0,1,10.4.6,2,2,0,0,1,11,2.06V6.19A2,2,0,0,1,8.94,8.25Z"/></g></g></svg>