<svg xmlns="http://www.w3.org/2000/svg" viewBox="0 0 289.2 74.45"><defs><style>.cls-1{fill:#8c723e;}</style></defs><title>资源 1</title><g id="图层_2" data-name="图层 2"><g id="图层_1-2" data-name="图层 1"><path class="cls-1" d="M8.3,68.4l.13,0a118.21,118.21,0,0,0,37.86,5.82c25.06,0,42.57-7.24,42.57-17.62V49.82c0-4.75-3-8.24-9.39-11-6.7-2.87-17.39-5-33.65-6.75C18.43,29.17,10.3,25.88,7,23.64a5.92,5.92,0,0,1-.87-.73A3.93,3.93,0,0,1,5,20.19,3.89,3.89,0,0,1,6,17.56,6.15,6.15,0,0,1,6.68,17l.1-.09.43-.33c6.35-4.82,21.67-7,34.68-7a111.18,111.18,0,0,1,35.68,5.73l1.26.38a7.09,7.09,0,0,0,2.24.35c3.21,0,5.82-2,5.82-4.55a4.58,4.58,0,0,0-3.25-4.08l-2-.76C70.07,2.4,56.46.19,42.24.19c-22.78,0-40.63,7.46-40.63,17V24c0,4.67,2.94,8.1,9.26,10.8,6.63,2.82,17.19,4.93,33.25,6.63,23.68,2.54,34.63,5.22,39,8.71l.07.07.31.31a4,4,0,0,1,1.22,2.79,3.81,3.81,0,0,1-.66,2.12l-.12.15a3.91,3.91,0,0,1-.42.51l-.42.47L83,56.7c-3.56,3.14-8.81,5-13.91,6.09a115.92,115.92,0,0,1-22.45,2.14A111.05,111.05,0,0,1,8.1,58.35l-1.5-.54H5.76C2.59,57.8,0,59.91,0,62.51a4.42,4.42,0,0,0,2.54,3.74A45.91,45.91,0,0,0,8.3,68.4"/><path class="cls-1" d="M193.28,70.53a5,5,0,0,0-.36-4.81c-.25-.31-.5-.59-.75-.85h0a11.1,11.1,0,0,0-3.55-2.53c-12.47-3.06-36.5-9.69-59.85-19.8l-.27-.12,0-.05c-2.35-1.07-5.24-2.52-5.24-5.47,0-2.75,2.73-3.72,4.88-4.89l.07,0c23.55-10.24,47.88-16.84,60.48-19.87a10.33,10.33,0,0,0,3-2l.05-.06h0a9.38,9.38,0,0,0,2.07-5.24c0-2.65-2.47-3-5-2.34C161.7,9,135.76,19,125.19,23.35c-4.72,2.47-6.78,7.9-6.78,13.85,0,6.33,2.33,11.9,7.49,14.19,10.47,4.24,36.34,14.22,63.26,20.71,0,0,2.91.48,4.12-1.57"/><path class="cls-1" d="M243.27,33.39c-1.81,0-3.28,2.06-3.28,4.61,0,2.36,1.26,4.3,2.9,4.57h43.28V54.24c0,.32-.05.62-.05.88a3.51,3.51,0,0,1-1.72,3l-.08,0c-7.45,3.37-21.87,7-35.92,7-20.48,0-38.42-6.8-44.58-16.16l0,0a20.51,20.51,0,0,1-2.92-10.78,22.58,22.58,0,0,1,3.41-11.92l0-.06c7.48-10.23,23.87-16.84,43.92-16.84,11.56,0,20.55,1.82,30,6.08l1,.42a5.17,5.17,0,0,0,2.16.56h.22a4.77,4.77,0,0,0,4.86-4.31A4.41,4.41,0,0,0,284,8l-1.16-.6C272.1,2.15,262.1,0,248.39,0c-33.2,0-51.28,17.07-52,33.93l0,5.77v0c0,.27,0,.54,0,.81v.19c0,.3,0,.64,0,.94v.56h0l.06.7c.72,8.3,5.49,16,13.44,21.53,9.3,6.53,22.54,10,38.29,10a85.19,85.19,0,0,0,36-7.63l.11-.06a8.26,8.26,0,0,0,4.81-7.35v-26Z"/><path class="cls-1" d="M107.3.59c-2.35,0-4.25,2-4.25,5a.74.74,0,0,1,0,.18V68.65c.1,2.84,2,4.73,4.24,4.73s4.24-2,4.24-4.95a.74.74,0,0,1,0-.18v-63c-.1-2.83-2-4.7-4.23-4.7"/></g></g></svg>