<svg xmlns="http://www.w3.org/2000/svg" viewBox="0 0 13.75 11"><defs><style>.cls-1{fill:#f2f2f2;}</style></defs><title>reg</title><g id="图层_2" data-name="图层 2"><g id="图层_1-2" data-name="图层 1"><path class="cls-1" d="M6.75,6.19a2.77,2.77,0,0,1,2,.85,2.78,2.78,0,0,1,.85,2V10a1,1,0,0,1-.31.73,1,1,0,0,1-.73.3H1a1,1,0,0,1-.73-.3A1,1,0,0,1,0,10v-.9A2.74,2.74,0,0,1,.85,7a2.74,2.74,0,0,1,2-.85h.36a3.76,3.76,0,0,0,1.57.34,3.7,3.7,0,0,0,1.57-.34Zm0-1.5a2.66,2.66,0,0,1-1.95.81,2.64,2.64,0,0,1-1.94-.81,2.62,2.62,0,0,1-.81-1.94A2.62,2.62,0,0,1,2.87.81,2.64,2.64,0,0,1,4.81,0a2.66,2.66,0,0,1,2,.81,2.65,2.65,0,0,1,.8,1.94A2.65,2.65,0,0,1,6.76,4.69Zm6.65-.22a.34.34,0,0,1,.34.34V5.5a.33.33,0,0,1-.1.25.32.32,0,0,1-.24.09H12V7.22a.33.33,0,0,1-.1.25.32.32,0,0,1-.24.09H11a.31.31,0,0,1-.34-.34V5.84H9.28a.31.31,0,0,1-.34-.34V4.81A.32.32,0,0,1,9,4.57a.33.33,0,0,1,.25-.1h1.38V3.09a.32.32,0,0,1,.09-.24.33.33,0,0,1,.25-.1h.69a.34.34,0,0,1,.34.34V4.47Z"/></g></g></svg>