<svg xmlns="http://www.w3.org/2000/svg" viewBox="0 0 15.77 15.75"><defs><style>.cls-1{fill:#454545;}</style></defs><title>add_icon</title><g id="图层_2" data-name="图层 2"><g id="图层_1-2" data-name="图层 1"><path class="cls-1" d="M14.64,6.19a1.07,1.07,0,0,1,.79.33,1.06,1.06,0,0,1,.34.79V8.44a1.06,1.06,0,0,1-.34.79,1.07,1.07,0,0,1-.79.33H9.57v5.07a1.11,1.11,0,0,1-.33.79,1.09,1.09,0,0,1-.79.33H7.32a1.09,1.09,0,0,1-.79-.33,1.12,1.12,0,0,1-.34-.79V9.56H1.13a1.11,1.11,0,0,1-.8-.33A1.09,1.09,0,0,1,0,8.44V7.31a1.09,1.09,0,0,1,.33-.79,1.11,1.11,0,0,1,.8-.33H6.19V1.13a1.12,1.12,0,0,1,.34-.8A1.09,1.09,0,0,1,7.32,0H8.45a1.09,1.09,0,0,1,.79.33,1.11,1.11,0,0,1,.33.8V6.19Z"/></g></g></svg>