<svg xmlns="http://www.w3.org/2000/svg" viewBox="0 0 16.37 16.28"><defs><style>.cls-1{fill:#fff;}</style></defs><title>arrow_right</title><g id="图层_2" data-name="图层 2"><g id="图层_1-2" data-name="图层 1"><path class="cls-1" d="M8.22,16.28a.84.84,0,0,1-.5-.17l-.29-.32a.67.67,0,0,1-.18-.48.84.84,0,0,1,.17-.5L13.23,9H.72a.75.75,0,0,1-.51-.21A.71.71,0,0,1,0,8.32V8a.72.72,0,0,1,.72-.72H13.23L7.45,1.5A.84.84,0,0,1,7.25,1a.69.69,0,0,1,.2-.5L7.68.21A.84.84,0,0,1,8.22,0a.68.68,0,0,1,.49.19l7.43,7.46a.58.58,0,0,1,.23.49.64.64,0,0,1-.26.52l-7.4,7.43A.68.68,0,0,1,8.22,16.28Z"/></g></g></svg>