<svg xmlns="http://www.w3.org/2000/svg" viewBox="0 0 16.37 16.28"><defs><style>.cls-1{fill:#fff;}</style></defs><title>arrow_left</title><g id="图层_2" data-name="图层 2"><g id="图层_1-2" data-name="图层 1"><path class="cls-1" d="M8.15,0a.84.84,0,0,1,.5.17l.29.32A.67.67,0,0,1,9.12,1,.79.79,0,0,1,9,1.46L3.14,7.24H15.65a.72.72,0,0,1,.72.72v.36a.71.71,0,0,1-.21.51.75.75,0,0,1-.51.21H3.14l5.78,5.74a.84.84,0,0,1,.2.53.69.69,0,0,1-.2.5l-.23.26a.84.84,0,0,1-.54.21.68.68,0,0,1-.49-.19L.23,8.63A.59.59,0,0,1,0,8.14a.62.62,0,0,1,.26-.52L7.65.19A.72.72,0,0,1,8.15,0Z"/></g></g></svg>