<?xml version="1.0" encoding="utf-8"?>
<!-- Generator: Adobe Illustrator 22.0.0, SVG Export Plug-In . SVG Version: 6.00 Build 0)  -->
<svg version="1.1" id="图层_1" xmlns="http://www.w3.org/2000/svg" xmlns:xlink="http://www.w3.org/1999/xlink" x="0px" y="0px"
	 viewBox="0 0 16.4 16.3" style="enable-background:new 0 0 16.4 16.3;" xml:space="preserve">
<style type="text/css">
	.st0{fill:#353535;}
</style>
<title>arrow_left</title>
<g id="图层_2_1_">
	<g id="图层_1-2">
		<path class="st0" d="M8.1,0c0.2,0,0.4,0.1,0.5,0.2l0.3,0.3C9.1,0.6,9.1,0.8,9.1,1c0,0.2,0,0.3-0.1,0.5L3.1,7.2h12.5
			c0.4,0,0.7,0.3,0.7,0.7v0.4c0,0.2-0.1,0.4-0.2,0.5C16,9,15.8,9,15.6,9H3.1l5.8,5.7c0.1,0.1,0.2,0.3,0.2,0.5c0,0.2-0.1,0.4-0.2,0.5
			l-0.2,0.3c-0.1,0.1-0.3,0.2-0.5,0.2c-0.2,0-0.4-0.1-0.5-0.2L0.2,8.6C0.1,8.5,0,8.3,0,8.1c0-0.2,0.1-0.4,0.3-0.5l7.4-7.4
			C7.8,0.1,8,0,8.1,0z"/>
	</g>
</g>
</svg>
