<svg xmlns="http://www.w3.org/2000/svg" viewBox="0 0 15.75 18.05"><defs><style>.cls-1{fill:#545454;}</style></defs><title>detail_icon</title><g id="图层_2" data-name="图层 2"><g id="图层_1-2" data-name="图层 1"><path class="cls-1" d="M0,5.73a.29.29,0,0,1,.14-.26.23.23,0,0,1,.28,0L7.31,9.56v7.88A.56.56,0,0,1,7,18a.48.48,0,0,1-.56,0L1.13,14.7a2.18,2.18,0,0,1-1.13-2ZM14.84,3.9a.26.26,0,0,1,.14.25.24.24,0,0,1-.14.24l-7,4.19-7-4.19a.24.24,0,0,1-.14-.24A.26.26,0,0,1,.91,3.9L6.75.35A2,2,0,0,1,9,.35Zm.49,1.58a.23.23,0,0,1,.28,0,.29.29,0,0,1,.14.26v7a2.21,2.21,0,0,1-1.12,2L9.28,18a.48.48,0,0,1-.56,0,.56.56,0,0,1-.28-.52V9.56Z"/></g></g></svg>