<svg xmlns="http://www.w3.org/2000/svg" viewBox="0 0 26.52 24.68"><defs><style>.cls-1{fill:#fff;}</style></defs><title>double_arrow</title><g id="图层_2" data-name="图层 2"><g id="图层_1-2" data-name="图层 1"><path class="cls-1" d="M7.92,0A.38.38,0,0,1,8.2.11l7.43,7.45a.35.35,0,0,1,0,.56L8.2,15.57a.38.38,0,0,1-.28.11.54.54,0,0,1-.32-.11l-.24-.28A.38.38,0,0,1,7.25,15a.49.49,0,0,1,.11-.31l6.3-6.26H.42a.39.39,0,0,1-.3-.13A.4.4,0,0,1,0,8V7.66a.4.4,0,0,1,.12-.29.39.39,0,0,1,.3-.13H13.66L7.36,1A.49.49,0,0,1,7.25.67.38.38,0,0,1,7.36.39L7.6.11A.54.54,0,0,1,7.92,0Z"/><path class="cls-1" d="M18.6,24.68a.38.38,0,0,1-.28-.11l-7.43-7.45a.35.35,0,0,1,0-.56l7.43-7.45A.38.38,0,0,1,18.6,9a.54.54,0,0,1,.32.11l.24.28a.38.38,0,0,1,.11.28.49.49,0,0,1-.11.31l-6.3,6.26H26.1a.41.41,0,0,1,.3.13.4.4,0,0,1,.12.29V17a.4.4,0,0,1-.12.29.41.41,0,0,1-.3.13H12.86l6.3,6.26a.49.49,0,0,1,.11.31.38.38,0,0,1-.11.28l-.24.28A.54.54,0,0,1,18.6,24.68Z"/></g></g></svg>