<?xml version="1.0" encoding="utf-8"?>
<!-- Generator: Adobe Illustrator 22.0.0, SVG Export Plug-In . SVG Version: 6.00 Build 0)  -->
<svg version="1.1" id="layout" xmlns="http://www.w3.org/2000/svg" xmlns:xlink="http://www.w3.org/1999/xlink" x="0px" y="0px"
	 viewBox="0 0 50 48" style="fill:#f2f2f2;" xml:space="preserve">
<path id="path" d="M38.3,47.9c-0.7,0-1.4-0.2-2.1-0.6l-9.9-5.2c-0.5-0.3-1.9-0.3-2.4,0l-9.9,5.2c-1.8,0.9-3.7,0.7-4.8-0.6
	C8.5,46.1,8,45,8.3,43.3l1.9-11c0.1-0.7-0.3-1.9-0.8-2.3l-8-7.8c-1.2-1.2-1.7-2.7-1.2-4c0.4-1.4,1.7-2.3,3.4-2.5l11.1-1.6
	c0.7-0.1,1.7-0.8,2-1.4l5-10C22.3,0.9,23.6,0,25,0c1.4,0,2.7,0.9,3.5,2.4l5,10c0.3,0.6,1.3,1.3,2,1.4l11.1,1.6
	c1.7,0.2,2.9,1.2,3.4,2.5c0.4,1.4,0,2.8-1.2,4l-8,7.8c-0.5,0.5-0.9,1.7-0.8,2.3l1.9,11c0.3,1.7-0.3,2.8-0.8,3.4
	C40.3,47.5,39.3,47.9,38.3,47.9L38.3,47.9z M25,39.8c0.8,0,1.7,0.2,2.2,0.5l9.9,5.2c0.9,0.5,1.7,0.4,2.1-0.1
	c0.3-0.4,0.4-0.9,0.3-1.7l-1.9-11c-0.2-1.4,0.4-3.3,1.4-4.3l8-7.8c0.6-0.6,0.8-1.2,0.7-1.8c-0.2-0.6-0.8-0.9-1.6-1.1l-11.1-1.6
	c-1.4-0.2-3-1.4-3.6-2.6l-5-10c-0.8-1.5-2.3-1.5-3,0l-5,10c-0.6,1.2-2.2,2.4-3.6,2.6L3.8,17.7c-0.8,0.1-1.4,0.5-1.6,1.1
	c-0.2,0.6,0.1,1.2,0.7,1.8l8,7.8c1,1,1.6,2.9,1.4,4.3l-1.9,11c-0.1,0.7,0,1.3,0.3,1.7c0.4,0.5,1.3,0.6,2.1,0.1l9.9-5.2
	C23.3,39.9,24.2,39.8,25,39.8L25,39.8z M25,39.8"/>
</svg>
