<svg xmlns="http://www.w3.org/2000/svg" viewBox="0 0 18.02 18"><defs><style>.cls-1{fill:#454545;}</style></defs><title>reseach</title><g id="图层_2" data-name="图层 2"><g id="图层_1-2" data-name="图层 1"><path class="cls-1" d="M17.77,15.57a.82.82,0,0,1,.25.6.79.79,0,0,1-.25.6l-1,1a.8.8,0,0,1-.6.25.82.82,0,0,1-.6-.25l-3.52-3.51a.83.83,0,0,1-.24-.6v-.56a7.13,7.13,0,0,1-4.51,1.55,7,7,0,0,1-5.17-2.15A7,7,0,0,1,0,7.31,7.06,7.06,0,0,1,2.15,2.14,7,7,0,0,1,7.32,0,7.07,7.07,0,0,1,12.5,2.14a7.05,7.05,0,0,1,2.14,5.17,7,7,0,0,1-1.55,4.5h.57a.78.78,0,0,1,.59.25ZM4.14,10.49a4.33,4.33,0,0,0,3.18,1.32,4.36,4.36,0,0,0,3.19-1.32,4.32,4.32,0,0,0,1.32-3.18,4.33,4.33,0,0,0-1.32-3.18A4.36,4.36,0,0,0,7.32,2.81,4.33,4.33,0,0,0,4.14,4.13,4.33,4.33,0,0,0,2.82,7.31,4.32,4.32,0,0,0,4.14,10.49Z"/></g></g></svg>