<?xml version="1.0" encoding="utf-8"?>
<svg version="1.1" id="layout" xmlns="http://www.w3.org/2000/svg" xmlns:xlink="http://www.w3.org/1999/xlink" x="0px" y="0px"
	 viewBox="0 0 50 50" style="fill:#f2f2f2;" xml:space="preserve">
<path id="path" d="M49.4,47.6L38.2,36.4c-0.1-0.1-0.1-0.1-0.2-0.1c3.4-3.8,5.5-8.9,5.5-14.5C43.5,9.8,33.8,0,21.8,0
	C9.7,0,0,9.8,0,21.8c0,12,9.7,21.8,21.8,21.8c5.5,0,10.6-2.1,14.4-5.5c0,0.1,0.1,0.1,0.1,0.1l11.2,11.2c0.7,0.7,1.6,0.8,2.1,0.3
	C50.2,49.2,50.1,48.2,49.4,47.6L49.4,47.6z M21.8,40.9c-10.6,0-19.1-8.6-19.1-19.1c0-10.6,8.6-19.1,19.1-19.1
	c10.6,0,19.1,8.6,19.1,19.1C40.9,32.4,32.3,40.9,21.8,40.9L21.8,40.9z M21.8,40.9"/>
</svg>
