<svg xmlns="http://www.w3.org/2000/svg" viewBox="0 0 15.02 7.5"><defs><style>.cls-1{fill:#454545;}</style></defs><title>elector_icon</title><g id="图层_2" data-name="图层 2"><g id="图层_1-2" data-name="图层 1"><path class="cls-1" d="M13.14,0a1.09,1.09,0,0,1,.8.33,1.08,1.08,0,0,1,.33.8V1.5h.18a.54.54,0,0,1,.4.16.56.56,0,0,1,.17.4V5.44a.56.56,0,0,1-.17.4.54.54,0,0,1-.4.16h-.18v.38a1.07,1.07,0,0,1-.33.79,1.09,1.09,0,0,1-.8.33h-12a1.08,1.08,0,0,1-.8-.33A1.07,1.07,0,0,1,0,6.38V1.13A1.08,1.08,0,0,1,.33.33,1.08,1.08,0,0,1,1.13,0Zm-.38,1.5H1.5V6H12.76V4.5h.76V3h-.76ZM12,2.25v3H2.25v-3Z"/></g></g></svg>