<svg xmlns="http://www.w3.org/2000/svg" viewBox="0 0 15.02 10.5"><defs><style>.cls-1{fill:#454545;}</style></defs><title>fre_icon</title><g id="图层_2" data-name="图层 2"><g id="图层_1-2" data-name="图层 1"><path class="cls-1" d="M11.17,10.5H7.6a.82.82,0,0,1-.6-.25.81.81,0,0,1-.24-.59V1.5H4.5V5.16A.84.84,0,0,1,3.66,6H.38a.37.37,0,0,1-.27-.11A.36.36,0,0,1,0,5.63V4.88a.37.37,0,0,1,.11-.27A.37.37,0,0,1,.38,4.5H3V.84A.82.82,0,0,1,3.25.25.79.79,0,0,1,3.85,0H7.42A.78.78,0,0,1,8,.25a.78.78,0,0,1,.25.59V9h2.25V5.34a.85.85,0,0,1,.85-.84h3.28a.38.38,0,0,1,.38.38v.75a.36.36,0,0,1-.11.26.37.37,0,0,1-.27.11H12V9.66a.81.81,0,0,1-.24.59A.82.82,0,0,1,11.17,10.5Z"/></g></g></svg>