<?xml version="1.0" encoding="utf-8"?>
<!-- Generator: Adobe Illustrator 22.0.0, SVG Export Plug-In . SVG Version: 6.00 Build 0)  -->
<svg version="1.1" id="图层_1" xmlns="http://www.w3.org/2000/svg" xmlns:xlink="http://www.w3.org/1999/xlink" x="0px" y="0px"
	 viewBox="0 0 13.7 12" style="enable-background:new 0 0 13.7 12;" xml:space="preserve">
<style type="text/css">
	.st0{fill:#454545;}
</style>
<title>tempture_icon</title>
<g id="图层_2_1_">
	<g id="图层_1-2">
		<path class="st0" d="M9.1,7c0.5,0.6,0.7,1.3,0.7,2c0,0.8-0.3,1.6-0.9,2.1C8.4,11.7,7.6,12,6.8,12l0,0c-0.8,0-1.6-0.3-2.1-0.9
			C4.2,10.6,3.8,9.8,3.8,9c0-0.7,0.3-1.5,0.8-2V2.3c0-0.6,0.2-1.2,0.7-1.6C5.7,0.2,6.2,0,6.8,0C7.4,0,8,0.2,8.4,0.7
			c0.4,0.4,0.7,1,0.7,1.6V7z M8.7,9c0-0.1,0-0.2,0-0.3c0-0.1,0-0.2-0.1-0.3c0-0.1-0.1-0.2-0.1-0.2c0-0.1-0.1-0.1-0.1-0.2
			c0-0.1-0.1-0.1-0.1-0.2L8.2,7.7L8.1,7.6L8,7.4V2.3c0-0.3-0.1-0.6-0.3-0.8C7.4,1.2,7.1,1.1,6.8,1.1C6.5,1.1,6.2,1.2,6,1.5
			C5.8,1.7,5.7,1.9,5.7,2.3v5.2L5.6,7.6c0,0.1-0.1,0.1-0.1,0.2L5.3,7.9c0,0-0.1,0.1-0.1,0.1L5.1,8.2C5.1,8.3,5,8.3,5,8.4
			C5,8.5,5,8.6,5,8.7C5,8.8,5,8.9,5,9c0,0.3,0.1,0.6,0.2,0.9c0.2,0.3,0.4,0.5,0.7,0.7c0.3,0.2,0.6,0.3,0.9,0.3l0,0
			c0.5,0,1-0.2,1.3-0.6C8.5,9.9,8.7,9.5,8.7,9z M8.3,9c0,0.4-0.1,0.8-0.4,1.1c-0.3,0.3-0.7,0.4-1.1,0.4c-0.4,0-0.8-0.1-1.1-0.4
			C5.5,9.8,5.3,9.4,5.3,9c0-0.5,0.3-1,0.8-1.3V5.3c0-0.2,0.1-0.4,0.2-0.5c0.1-0.1,0.3-0.2,0.5-0.2c0.2,0,0.4,0.1,0.5,0.2
			c0.1,0.1,0.2,0.3,0.2,0.5v2.5C8.1,8,8.4,8.5,8.3,9z"/>
	</g>
</g>
</svg>
