<svg xmlns="http://www.w3.org/2000/svg" viewBox="0 0 13.52 12"><defs><style>.cls-1{fill:#454545;}</style></defs><title>viter_icon</title><g id="图层_2" data-name="图层 2"><g id="图层_1-2" data-name="图层 1"><path class="cls-1" d="M7.88,10.5a.38.38,0,0,1,.38.38v.75a.36.36,0,0,1-.11.26.37.37,0,0,1-.27.11H.38a.37.37,0,0,1-.27-.11A.36.36,0,0,1,0,11.63v-.75a.37.37,0,0,1,.11-.27.37.37,0,0,1,.27-.11ZM12.76,3h.38a.38.38,0,0,1,.38.38v.75a1.84,1.84,0,0,1-.37,1.1,1.93,1.93,0,0,1-1,.68V8.72A1.72,1.72,0,0,1,11.62,10a1.75,1.75,0,0,1-1.39.47,1.71,1.71,0,0,1-1.14-.61,1.88,1.88,0,0,1-.46-1.24V8.06a1,1,0,0,0-.26-.67.91.91,0,0,0-.67-.26H7.51V9.75H.75V1.5A1.5,1.5,0,0,1,1.18.43,1.46,1.46,0,0,1,2.25,0H6A1.42,1.42,0,0,1,7.07.43,1.46,1.46,0,0,1,7.51,1.5V6H7.7A2.08,2.08,0,0,1,9.76,8.06v.66a.69.69,0,0,0,.78.66.69.69,0,0,0,.38-.25.76.76,0,0,0,.16-.46V5.91a1.88,1.88,0,0,1-.95-.68,1.78,1.78,0,0,1-.37-1.1V3.38A.38.38,0,0,1,10.14,3h.37V1.88a.38.38,0,0,1,.65-.27.36.36,0,0,1,.1.27V3H12V1.88a.38.38,0,0,1,.65-.27.36.36,0,0,1,.1.27ZM6.1,4.13a.2.2,0,0,0,0-.25.25.25,0,0,0-.24-.13H4.5l.29-1.2a.29.29,0,0,0-.06-.21.3.3,0,0,0-.23-.09H2.91c-.17,0-.27.07-.28.21L2.25,5a.22.22,0,0,0,.07.2.37.37,0,0,0,.21.08H3.92l-.54,2a.22.22,0,0,0,.06.21.28.28,0,0,0,.22.09.26.26,0,0,0,.24-.12Z"/></g></g></svg>