<svg xmlns="http://www.w3.org/2000/svg" xmlns:xlink="http://www.w3.org/1999/xlink" viewBox="0 0 64.59 63.14"><defs><style>.cls-1{fill:none;}.cls-2{clip-path:url(#clip-path);}</style><clipPath id="clip-path" transform="translate(0 -0.01)"><rect class="cls-1" x="0.01" width="64.64" height="63.23"/></clipPath></defs><title>ico_2</title><g id="图层_2" data-name="图层 2"><g id="图层_1-2" data-name="图层 1"><g class="cls-2"><path d="M6.6,11.25H9.15A9.36,9.36,0,0,1,7.91,6.31a6.21,6.21,0,0,1,1.52-3.8A7,7,0,0,1,12.9.37c2.58-.75,6-.36,9.53,1.54a31.15,31.15,0,0,1,5.48,3.92,50.37,50.37,0,0,1,4.34,4.33,56.81,56.81,0,0,1,4.34-4.33,31.58,31.58,0,0,1,5.5-3.92C45.62,0,49-.38,51.61.37a7,7,0,0,1,3.47,2.14,6.3,6.3,0,0,1,1.52,3.8,9.27,9.27,0,0,1-1.24,4.94H58A6.93,6.93,0,0,1,62.65,13a5.69,5.69,0,0,1,1.94,4.22v7a5.7,5.7,0,0,1-1.94,4.22A6.91,6.91,0,0,1,59,30.12a7.88,7.88,0,0,1,1.46,4.58V55.15a8,8,0,0,1-8,8H12.14a8,8,0,0,1-8-8V34.7a7.86,7.86,0,0,1,1.46-4.58,6.84,6.84,0,0,1-3.67-1.7A5.66,5.66,0,0,1,0,24.2v-7A5.73,5.73,0,0,1,1.94,13,6.91,6.91,0,0,1,6.6,11.25Zm29.21,0H51.4a7.51,7.51,0,0,0,1.87-4.73,3,3,0,0,0-.72-1.81A3.75,3.75,0,0,0,50.69,3.6c-1.82-.52-4.3-.19-7,1.27a28.12,28.12,0,0,0-4.88,3.49c-1,.92-2,1.88-3,2.89Zm-22.69,0H28.71c-1.05-1.1-2-2.05-3-2.89a26.88,26.88,0,0,0-4.88-3.49c-2.7-1.47-5.2-1.79-7-1.27A3.78,3.78,0,0,0,12,4.7a3.06,3.06,0,0,0-.71,1.81,7.42,7.42,0,0,0,1.87,4.74Zm21.12,3.5V26.68H58A2.86,2.86,0,0,0,59.93,26a2.36,2.36,0,0,0,.8-1.75v-7a2.31,2.31,0,0,0-.8-1.74A2.88,2.88,0,0,0,58,14.75Zm0,15.83v28.7H52.46a4.17,4.17,0,0,0,2.91-1.21,4.11,4.11,0,0,0,1.21-2.92V34.7a4.13,4.13,0,0,0-4.12-4.12Zm-3.88,28.7V30.58H12.14A4.13,4.13,0,0,0,8,34.7V55.15a4.13,4.13,0,0,0,4.12,4.12H30.36Zm0-32.6V14.75H6.6a2.84,2.84,0,0,0-1.93.73,2.32,2.32,0,0,0-.81,1.74v7A2.37,2.37,0,0,0,4.67,26a2.84,2.84,0,0,0,1.93.73Z" transform="translate(0 -0.01)"/></g></g></g></svg>