<svg xmlns="http://www.w3.org/2000/svg" xmlns:xlink="http://www.w3.org/1999/xlink" viewBox="0 0 63.08 63.09"><defs><style>.cls-1{fill:none;}.cls-2{clip-path:url(#clip-path);}</style><clipPath id="clip-path" transform="translate(0 -0.05)"><rect class="cls-1" width="63.14" height="63.23"/></clipPath></defs><title>ico_1</title><g id="图层_2" data-name="图层 2"><g id="图层_1-2" data-name="图层 1"><g class="cls-2"><path d="M35.56,60A2,2,0,0,0,37,59.37L59.32,37.12a2,2,0,0,0,.58-1.43,2.17,2.17,0,0,0-.64-1.54L28.05,3.24H3.24L3.18,27.93,34,59.31a2.2,2.2,0,0,0,1.56.65M21.71,23.74,42.16,44.13l-4.49,4.5L17.21,28.24l4.5-4.5m7.93-7.95,20.45,20.4-4.49,4.5L25.15,20.29l4.49-4.5m-16.55-11a8.43,8.43,0,1,1-8.44,8.42,8.44,8.44,0,0,1,8.44-8.42M35.56,63.14a5.37,5.37,0,0,1-3.8-1.58L0,29.23.07.05H29.36L61.5,31.89a5.27,5.27,0,0,1,.06,7.48L39.25,61.62a5.17,5.17,0,0,1-3.69,1.52ZM13.09,8a5.25,5.25,0,1,0,5.26,5.24A5.25,5.25,0,0,0,13.09,8Z" transform="translate(0 -0.05)"/></g></g></g></svg>