<svg xmlns="http://www.w3.org/2000/svg" xmlns:xlink="http://www.w3.org/1999/xlink" viewBox="0 0 67.64 63.06"><defs><style>.cls-1{fill:none;}.cls-2{clip-path:url(#clip-path);}</style><clipPath id="clip-path" transform="translate(0 -0.07)"><rect class="cls-1" x="0.01" width="67.69" height="63.23"/></clipPath></defs><title>ico_4</title><g id="图层_2" data-name="图层 2"><g id="图层_1-2" data-name="图层 1"><g class="cls-2"><path d="M12.75,8.45a2.1,2.1,0,1,0,0,4.2H54.89a2.1,2.1,0,1,0,0-4.2Z" transform="translate(0 -0.07)"/><path d="M67.64,24c0-.52,0-.66-7.52-20.57A5.42,5.42,0,0,0,55.27.07H12.36A5.38,5.38,0,0,0,7.53,3.41C0,23.32,0,23.46,0,24a12.56,12.56,0,0,0,4.38,9.49c0,.07,0,.14,0,.21V56.83a6.31,6.31,0,0,0,6.32,6.3H57a6.32,6.32,0,0,0,6.32-6.3V33.68a1.6,1.6,0,0,0,0-.21A12.54,12.54,0,0,0,67.64,24ZM59.09,56.83A2.11,2.11,0,0,1,57,58.93H10.66a2.11,2.11,0,0,1-2.11-2.1V35.91a12.82,12.82,0,0,0,4.26.78c6.47,0,10.59-4.46,10.47-4.65a15.65,15.65,0,0,0,10.59,4.63c6.31-.13,10.33-4.44,10.2-4.63a15.5,15.5,0,0,0,10.76,4.65,12.82,12.82,0,0,0,4.26-.78ZM54.83,32.46A11.35,11.35,0,0,1,47.2,29.2a4,4,0,0,0-6,0,11.44,11.44,0,0,1-7.4,3.26A11.49,11.49,0,0,1,26.4,29.2a4.12,4.12,0,0,0-5.95,0,11.36,11.36,0,0,1-7.64,3.27,8.54,8.54,0,0,1-8.58-8.17c.66-1.89,4.61-12.4,7.24-19.4a1.25,1.25,0,0,1,.89-.6H55.27a1.22,1.22,0,0,1,.89.61c2.64,7,6.59,17.5,7.25,19.39a8.55,8.55,0,0,1-8.58,8.17Z" transform="translate(0 -0.07)"/></g></g></g></svg>